<mxfile host="app.diagrams.net" modified="2024-03-20T03:57:52.413Z" agent="Mozilla/5.0 (Windows NT 10.0; Win64; x64) AppleWebKit/537.36 (KHTML, like Gecko) Chrome/122.0.0.0 Safari/537.36 OPR/108.0.0.0" etag="SBWAvwJoXB4XcJPJcZO0" version="24.0.7" type="device">
  <diagram id="C5RBs43oDa-KdzZeNtuy" name="Page-1">
    <mxGraphModel dx="2147" dy="2057" grid="1" gridSize="10" guides="1" tooltips="1" connect="1" arrows="1" fold="1" page="1" pageScale="1" pageWidth="827" pageHeight="1169" math="0" shadow="0">
      <root>
        <mxCell id="WIyWlLk6GJQsqaUBKTNV-0" />
        <mxCell id="WIyWlLk6GJQsqaUBKTNV-1" parent="WIyWlLk6GJQsqaUBKTNV-0" />
        <mxCell id="zkfFHV4jXpPFQw0GAbJ--17" value="PFITNode" style="swimlane;fontStyle=1;align=center;verticalAlign=top;childLayout=stackLayout;horizontal=1;startSize=26;horizontalStack=0;resizeParent=1;resizeLast=0;collapsible=1;marginBottom=0;rounded=0;shadow=0;strokeWidth=1;fontSize=15;" parent="WIyWlLk6GJQsqaUBKTNV-1" vertex="1">
          <mxGeometry x="410" y="-620" width="1170" height="693" as="geometry">
            <mxRectangle x="550" y="140" width="160" height="26" as="alternateBounds" />
          </mxGeometry>
        </mxCell>
        <mxCell id="zkfFHV4jXpPFQw0GAbJ--18" value="-itemset: List&lt;String&gt;" style="text;align=left;verticalAlign=top;spacingLeft=4;spacingRight=4;overflow=hidden;rotatable=0;points=[[0,0.5],[1,0.5]];portConstraint=eastwest;fontSize=20;" parent="zkfFHV4jXpPFQw0GAbJ--17" vertex="1">
          <mxGeometry y="26" width="1170" height="26" as="geometry" />
        </mxCell>
        <mxCell id="zkfFHV4jXpPFQw0GAbJ--19" value="-sup: double" style="text;align=left;verticalAlign=top;spacingLeft=4;spacingRight=4;overflow=hidden;rotatable=0;points=[[0,0.5],[1,0.5]];portConstraint=eastwest;rounded=0;shadow=0;html=0;fontSize=20;" parent="zkfFHV4jXpPFQw0GAbJ--17" vertex="1">
          <mxGeometry y="52" width="1170" height="26" as="geometry" />
        </mxCell>
        <mxCell id="zkfFHV4jXpPFQw0GAbJ--20" value="-esup: double" style="text;align=left;verticalAlign=top;spacingLeft=4;spacingRight=4;overflow=hidden;rotatable=0;points=[[0,0.5],[1,0.5]];portConstraint=eastwest;rounded=0;shadow=0;html=0;fontSize=20;" parent="zkfFHV4jXpPFQw0GAbJ--17" vertex="1">
          <mxGeometry y="78" width="1170" height="26" as="geometry" />
        </mxCell>
        <mxCell id="zkfFHV4jXpPFQw0GAbJ--21" value="-psup: double" style="text;align=left;verticalAlign=top;spacingLeft=4;spacingRight=4;overflow=hidden;rotatable=0;points=[[0,0.5],[1,0.5]];portConstraint=eastwest;rounded=0;shadow=0;html=0;fontSize=20;" parent="zkfFHV4jXpPFQw0GAbJ--17" vertex="1">
          <mxGeometry y="104" width="1170" height="26" as="geometry" />
        </mxCell>
        <mxCell id="zkfFHV4jXpPFQw0GAbJ--22" value="-lb: double" style="text;align=left;verticalAlign=top;spacingLeft=4;spacingRight=4;overflow=hidden;rotatable=0;points=[[0,0.5],[1,0.5]];portConstraint=eastwest;rounded=0;shadow=0;html=0;fontSize=20;" parent="zkfFHV4jXpPFQw0GAbJ--17" vertex="1">
          <mxGeometry y="130" width="1170" height="26" as="geometry" />
        </mxCell>
        <mxCell id="36QlLySLfy8yBwGT6h9D-12" value="&lt;span style=&quot;font-family: Helvetica, &amp;quot;VP Default&amp;quot;; font-size: 20px; text-wrap: nowrap; background-color: rgb(248, 249, 250);&quot;&gt;-ub: double&lt;/span&gt;" style="text;strokeColor=none;fillColor=none;align=left;verticalAlign=top;spacingLeft=4;spacingRight=4;overflow=hidden;rotatable=0;points=[[0,0.5],[1,0.5]];portConstraint=eastwest;whiteSpace=wrap;html=1;fontSize=20;" parent="zkfFHV4jXpPFQw0GAbJ--17" vertex="1">
          <mxGeometry y="156" width="1170" height="26" as="geometry" />
        </mxCell>
        <mxCell id="36QlLySLfy8yBwGT6h9D-13" value="&lt;span style=&quot;font-family: Helvetica, &amp;quot;VP Default&amp;quot;; font-size: 20px; text-wrap: nowrap; background-color: rgb(248, 249, 250);&quot;&gt;-parent:&amp;nbsp;PFITNode&lt;/span&gt;" style="text;strokeColor=none;fillColor=none;align=left;verticalAlign=top;spacingLeft=4;spacingRight=4;overflow=hidden;rotatable=0;points=[[0,0.5],[1,0.5]];portConstraint=eastwest;whiteSpace=wrap;html=1;fontSize=20;" parent="zkfFHV4jXpPFQw0GAbJ--17" vertex="1">
          <mxGeometry y="182" width="1170" height="26" as="geometry" />
        </mxCell>
        <mxCell id="36QlLySLfy8yBwGT6h9D-14" value="&lt;span style=&quot;font-family: Helvetica, &amp;quot;VP Default&amp;quot;; text-wrap: nowrap; background-color: rgb(248, 249, 250); font-size: 20px;&quot;&gt;-children:&amp;nbsp;List&amp;lt;PFITNode&amp;gt;&lt;/span&gt;" style="text;strokeColor=none;fillColor=none;align=left;verticalAlign=top;spacingLeft=4;spacingRight=4;overflow=hidden;rotatable=0;points=[[0,0.5],[1,0.5]];portConstraint=eastwest;whiteSpace=wrap;html=1;fontSize=20;" parent="zkfFHV4jXpPFQw0GAbJ--17" vertex="1">
          <mxGeometry y="208" width="1170" height="26" as="geometry" />
        </mxCell>
        <mxCell id="36QlLySLfy8yBwGT6h9D-15" value="&lt;span style=&quot;font-family: Helvetica, &amp;quot;VP Default&amp;quot;; text-wrap: nowrap; background-color: rgb(248, 249, 250); font-size: 20px;&quot;&gt;+database:&amp;nbsp;UncertainDatabase&lt;/span&gt;" style="text;strokeColor=none;fillColor=none;align=left;verticalAlign=top;spacingLeft=4;spacingRight=4;overflow=hidden;rotatable=0;points=[[0,0.5],[1,0.5]];portConstraint=eastwest;whiteSpace=wrap;html=1;fontSize=20;" parent="zkfFHV4jXpPFQw0GAbJ--17" vertex="1">
          <mxGeometry y="234" width="1170" height="26" as="geometry" />
        </mxCell>
        <mxCell id="zkfFHV4jXpPFQw0GAbJ--23" value="" style="line;html=1;strokeWidth=1;align=left;verticalAlign=middle;spacingTop=-1;spacingLeft=3;spacingRight=3;rotatable=0;labelPosition=right;points=[];portConstraint=eastwest;fontSize=20;" parent="zkfFHV4jXpPFQw0GAbJ--17" vertex="1">
          <mxGeometry y="260" width="1170" height="8" as="geometry" />
        </mxCell>
        <mxCell id="zkfFHV4jXpPFQw0GAbJ--24" value="+PFITNode(List&lt;String&gt; itemset,UncertainDatabase database)" style="text;align=left;verticalAlign=top;spacingLeft=4;spacingRight=4;overflow=hidden;rotatable=0;points=[[0,0.5],[1,0.5]];portConstraint=eastwest;fontSize=20;" parent="zkfFHV4jXpPFQw0GAbJ--17" vertex="1">
          <mxGeometry y="268" width="1170" height="26" as="geometry" />
        </mxCell>
        <mxCell id="zkfFHV4jXpPFQw0GAbJ--25" value="+getRightSiblings(): List&lt;PFITNode&gt;" style="text;align=left;verticalAlign=top;spacingLeft=4;spacingRight=4;overflow=hidden;rotatable=0;points=[[0,0.5],[1,0.5]];portConstraint=eastwest;fontSize=20;" parent="zkfFHV4jXpPFQw0GAbJ--17" vertex="1">
          <mxGeometry y="294" width="1170" height="26" as="geometry" />
        </mxCell>
        <mxCell id="36QlLySLfy8yBwGT6h9D-24" value="&lt;span style=&quot;font-family: Helvetica, &amp;quot;VP Default&amp;quot;; font-size: 20px; text-wrap: nowrap; background-color: rgb(248, 249, 250);&quot;&gt;+generateChildNode(PFITNode nY):&amp;nbsp;PFITNode&lt;/span&gt;" style="text;strokeColor=none;fillColor=none;align=left;verticalAlign=top;spacingLeft=4;spacingRight=4;overflow=hidden;rotatable=0;points=[[0,0.5],[1,0.5]];portConstraint=eastwest;whiteSpace=wrap;html=1;fontSize=20;" parent="zkfFHV4jXpPFQw0GAbJ--17" vertex="1">
          <mxGeometry y="320" width="1170" height="26" as="geometry" />
        </mxCell>
        <mxCell id="36QlLySLfy8yBwGT6h9D-37" value="&lt;span style=&quot;font-family: Helvetica, &amp;quot;VP Default&amp;quot;; font-size: 20px; text-wrap: nowrap; background-color: rgb(248, 249, 250);&quot;&gt;+isFrequent(double minisup, double ub):&amp;nbsp;boolean&lt;/span&gt;" style="text;strokeColor=none;fillColor=none;align=left;verticalAlign=top;spacingLeft=4;spacingRight=4;overflow=hidden;rotatable=0;points=[[0,0.5],[1,0.5]];portConstraint=eastwest;whiteSpace=wrap;html=1;fontSize=20;" parent="zkfFHV4jXpPFQw0GAbJ--17" vertex="1">
          <mxGeometry y="346" width="1170" height="26" as="geometry" />
        </mxCell>
        <mxCell id="36QlLySLfy8yBwGT6h9D-36" value="&lt;span style=&quot;font-family: Helvetica, &amp;quot;VP Default&amp;quot;; font-size: 20px; text-wrap: nowrap; background-color: rgb(248, 249, 250);&quot;&gt;+isSingleElementSubset(List&amp;lt;String&amp;gt; name, List&amp;lt;String&amp;gt; items): boolean&lt;/span&gt;" style="text;strokeColor=none;fillColor=none;align=left;verticalAlign=top;spacingLeft=4;spacingRight=4;overflow=hidden;rotatable=0;points=[[0,0.5],[1,0.5]];portConstraint=eastwest;whiteSpace=wrap;html=1;fontSize=20;" parent="zkfFHV4jXpPFQw0GAbJ--17" vertex="1">
          <mxGeometry y="372" width="1170" height="26" as="geometry" />
        </mxCell>
        <mxCell id="36QlLySLfy8yBwGT6h9D-34" value="&lt;span style=&quot;font-family: Helvetica, &amp;quot;VP Default&amp;quot;; font-size: 20px; text-wrap: nowrap; background-color: rgb(248, 249, 250);&quot;&gt;+checkFrequenDel(double OLB, double OUB, double OPS, double ULB, double UUB, double UPS, double minisupp):&amp;nbsp;boolean&lt;/span&gt;" style="text;strokeColor=none;fillColor=none;align=left;verticalAlign=top;spacingLeft=4;spacingRight=4;overflow=hidden;rotatable=0;points=[[0,0.5],[1,0.5]];portConstraint=eastwest;whiteSpace=wrap;html=1;fontSize=20;" parent="zkfFHV4jXpPFQw0GAbJ--17" vertex="1">
          <mxGeometry y="398" width="1170" height="26" as="geometry" />
        </mxCell>
        <mxCell id="36QlLySLfy8yBwGT6h9D-17" value="&lt;span style=&quot;font-family: Helvetica, &amp;quot;VP Default&amp;quot;; font-size: 20px; text-wrap: nowrap; background-color: rgb(248, 249, 250);&quot;&gt;+checkInfrequent(double OLB, double OUB, double OPS, double ULB, double UUB, double UPS, double minisupp): boolean&lt;/span&gt;" style="text;strokeColor=none;fillColor=none;align=left;verticalAlign=top;spacingLeft=4;spacingRight=4;overflow=hidden;rotatable=0;points=[[0,0.5],[1,0.5]];portConstraint=eastwest;whiteSpace=wrap;html=1;fontSize=20;" parent="zkfFHV4jXpPFQw0GAbJ--17" vertex="1">
          <mxGeometry y="424" width="1170" height="26" as="geometry" />
        </mxCell>
        <mxCell id="36QlLySLfy8yBwGT6h9D-32" value="&lt;span style=&quot;font-family: Helvetica, &amp;quot;VP Default&amp;quot;; font-size: 20px; text-wrap: nowrap; background-color: rgb(248, 249, 250);&quot;&gt;+checkNewFrequent(double OLB, double OUB, double OPS, double ULB, double UUB, double UPS, double minisupp): boolean&lt;/span&gt;" style="text;strokeColor=none;fillColor=none;align=left;verticalAlign=top;spacingLeft=4;spacingRight=4;overflow=hidden;rotatable=0;points=[[0,0.5],[1,0.5]];portConstraint=eastwest;whiteSpace=wrap;html=1;fontSize=20;" parent="zkfFHV4jXpPFQw0GAbJ--17" vertex="1">
          <mxGeometry y="450" width="1170" height="26" as="geometry" />
        </mxCell>
        <mxCell id="36QlLySLfy8yBwGT6h9D-31" value="&lt;span style=&quot;font-family: Helvetica, &amp;quot;VP Default&amp;quot;; font-size: 20px; text-wrap: nowrap; background-color: rgb(248, 249, 250);&quot;&gt;+checkFrequent(double OLB, double OUB, double OPS, double ULB, double UUB, double UPS, double minisupp): boolean&lt;/span&gt;" style="text;strokeColor=none;fillColor=none;align=left;verticalAlign=top;spacingLeft=4;spacingRight=4;overflow=hidden;rotatable=0;points=[[0,0.5],[1,0.5]];portConstraint=eastwest;whiteSpace=wrap;html=1;fontSize=20;" parent="zkfFHV4jXpPFQw0GAbJ--17" vertex="1">
          <mxGeometry y="476" width="1170" height="26" as="geometry" />
        </mxCell>
        <mxCell id="36QlLySLfy8yBwGT6h9D-30" value="&lt;span style=&quot;font-family: Helvetica, &amp;quot;VP Default&amp;quot;; font-size: 20px; text-wrap: nowrap; background-color: rgb(248, 249, 250);&quot;&gt;+Supporteds(List&amp;lt;String&amp;gt; requiredItems, List&amp;lt;List&amp;lt;String&amp;gt;&amp;gt; name1): double&lt;/span&gt;" style="text;strokeColor=none;fillColor=none;align=left;verticalAlign=top;spacingLeft=4;spacingRight=4;overflow=hidden;rotatable=0;points=[[0,0.5],[1,0.5]];portConstraint=eastwest;whiteSpace=wrap;html=1;fontSize=20;" parent="zkfFHV4jXpPFQw0GAbJ--17" vertex="1">
          <mxGeometry y="502" width="1170" height="26" as="geometry" />
        </mxCell>
        <mxCell id="36QlLySLfy8yBwGT6h9D-29" value="&lt;span style=&quot;font-family: Helvetica, &amp;quot;VP Default&amp;quot;; font-size: 20px; text-wrap: nowrap; background-color: rgb(248, 249, 250);&quot;&gt;+ExpSups(List&amp;lt;String&amp;gt; requiredItems, List&amp;lt;List&amp;lt;String&amp;gt;&amp;gt; name1, List&amp;lt;List&amp;lt;Double&amp;gt;&amp;gt; prob1): double&lt;/span&gt;" style="text;strokeColor=none;fillColor=none;align=left;verticalAlign=top;spacingLeft=4;spacingRight=4;overflow=hidden;rotatable=0;points=[[0,0.5],[1,0.5]];portConstraint=eastwest;whiteSpace=wrap;html=1;fontSize=20;" parent="zkfFHV4jXpPFQw0GAbJ--17" vertex="1">
          <mxGeometry y="528" width="1170" height="26" as="geometry" />
        </mxCell>
        <mxCell id="36QlLySLfy8yBwGT6h9D-28" value="&lt;span style=&quot;font-family: Helvetica, &amp;quot;VP Default&amp;quot;; font-size: 20px; text-wrap: nowrap; background-color: rgb(248, 249, 250);&quot;&gt;+ProbabilityFrequents(List&amp;lt;String&amp;gt; requiredItems, double minValue, List&amp;lt;List&amp;lt;String&amp;gt;&amp;gt; name1, List&amp;lt;List&amp;lt;Double&amp;gt;&amp;gt; prob1): double&lt;/span&gt;" style="text;strokeColor=none;fillColor=none;align=left;verticalAlign=top;spacingLeft=4;spacingRight=4;overflow=hidden;rotatable=0;points=[[0,0.5],[1,0.5]];portConstraint=eastwest;whiteSpace=wrap;html=1;fontSize=20;" parent="zkfFHV4jXpPFQw0GAbJ--17" vertex="1">
          <mxGeometry y="554" width="1170" height="26" as="geometry" />
        </mxCell>
        <mxCell id="36QlLySLfy8yBwGT6h9D-27" value="&lt;span style=&quot;font-family: Helvetica, &amp;quot;VP Default&amp;quot;; font-size: 20px; text-wrap: nowrap; background-color: rgb(248, 249, 250);&quot;&gt;+Probability(double sup, double esup, double miniprob): double&lt;/span&gt;" style="text;strokeColor=none;fillColor=none;align=left;verticalAlign=top;spacingLeft=4;spacingRight=4;overflow=hidden;rotatable=0;points=[[0,0.5],[1,0.5]];portConstraint=eastwest;whiteSpace=wrap;html=1;fontSize=20;" parent="zkfFHV4jXpPFQw0GAbJ--17" vertex="1">
          <mxGeometry y="580" width="1170" height="26" as="geometry" />
        </mxCell>
        <mxCell id="36QlLySLfy8yBwGT6h9D-22" value="&lt;span style=&quot;font-family: Helvetica, &amp;quot;VP Default&amp;quot;; font-size: 20px; text-wrap: nowrap; background-color: rgb(248, 249, 250);&quot;&gt;+LBs(double expectedSupport, double miniprob): double&lt;/span&gt;" style="text;strokeColor=none;fillColor=none;align=left;verticalAlign=top;spacingLeft=4;spacingRight=4;overflow=hidden;rotatable=0;points=[[0,0.5],[1,0.5]];portConstraint=eastwest;whiteSpace=wrap;html=1;fontSize=20;" parent="zkfFHV4jXpPFQw0GAbJ--17" vertex="1">
          <mxGeometry y="606" width="1170" height="26" as="geometry" />
        </mxCell>
        <mxCell id="36QlLySLfy8yBwGT6h9D-25" value="&lt;span style=&quot;font-family: Helvetica, &amp;quot;VP Default&amp;quot;; font-size: 20px; text-wrap: nowrap; background-color: rgb(248, 249, 250);&quot;&gt;+UBs(double expectedSupport, double miniprob, double support): double&lt;/span&gt;" style="text;strokeColor=none;fillColor=none;align=left;verticalAlign=top;spacingLeft=4;spacingRight=4;overflow=hidden;rotatable=0;points=[[0,0.5],[1,0.5]];portConstraint=eastwest;whiteSpace=wrap;html=1;fontSize=20;" parent="zkfFHV4jXpPFQw0GAbJ--17" vertex="1">
          <mxGeometry y="632" width="1170" height="26" as="geometry" />
        </mxCell>
        <mxCell id="36QlLySLfy8yBwGT6h9D-38" value="&lt;span style=&quot;font-family: Helvetica, &amp;quot;VP Default&amp;quot;; font-size: 20px; text-wrap: nowrap; background-color: rgb(248, 249, 250);&quot;&gt;+weightAverage(List&amp;lt;String&amp;gt; requiredItems, List&amp;lt;List&amp;lt;String&amp;gt;&amp;gt; name1, List&amp;lt;List&amp;lt;Double&amp;gt;&amp;gt; weight1, double support): double&lt;/span&gt;" style="text;strokeColor=none;fillColor=none;align=left;verticalAlign=top;spacingLeft=4;spacingRight=4;overflow=hidden;rotatable=0;points=[[0,0.5],[1,0.5]];portConstraint=eastwest;whiteSpace=wrap;html=1;fontSize=20;" parent="zkfFHV4jXpPFQw0GAbJ--17" vertex="1">
          <mxGeometry y="658" width="1170" height="34" as="geometry" />
        </mxCell>
        <mxCell id="36QlLySLfy8yBwGT6h9D-73" value="&lt;span style=&quot;font-family: Helvetica, &amp;quot;VP Default&amp;quot;; font-size: 15px; background-color: rgb(248, 249, 250);&quot;&gt;UncertainItem&lt;/span&gt;" style="swimlane;fontStyle=1;align=center;verticalAlign=top;childLayout=stackLayout;horizontal=1;startSize=26;horizontalStack=0;resizeParent=1;resizeParentMax=0;resizeLast=0;collapsible=1;marginBottom=0;whiteSpace=wrap;html=1;fontSize=15;" parent="WIyWlLk6GJQsqaUBKTNV-1" vertex="1">
          <mxGeometry x="366.25" y="-896" width="460" height="120" as="geometry" />
        </mxCell>
        <mxCell id="36QlLySLfy8yBwGT6h9D-74" value="&lt;span style=&quot;font-family: Helvetica, &amp;quot;VP Default&amp;quot;; font-size: 20px; text-wrap: nowrap; background-color: rgb(248, 249, 250);&quot;&gt;+name: String&lt;/span&gt;" style="text;strokeColor=none;fillColor=none;align=left;verticalAlign=top;spacingLeft=4;spacingRight=4;overflow=hidden;rotatable=0;points=[[0,0.5],[1,0.5]];portConstraint=eastwest;whiteSpace=wrap;html=1;fontSize=20;" parent="36QlLySLfy8yBwGT6h9D-73" vertex="1">
          <mxGeometry y="26" width="460" height="26" as="geometry" />
        </mxCell>
        <mxCell id="36QlLySLfy8yBwGT6h9D-77" value="&lt;span style=&quot;font-family: Helvetica, &amp;quot;VP Default&amp;quot;; font-size: 20px; text-wrap: nowrap; background-color: rgb(248, 249, 250);&quot;&gt;+probability: double&lt;/span&gt;" style="text;strokeColor=none;fillColor=none;align=left;verticalAlign=top;spacingLeft=4;spacingRight=4;overflow=hidden;rotatable=0;points=[[0,0.5],[1,0.5]];portConstraint=eastwest;whiteSpace=wrap;html=1;fontSize=20;" parent="36QlLySLfy8yBwGT6h9D-73" vertex="1">
          <mxGeometry y="52" width="460" height="26" as="geometry" />
        </mxCell>
        <mxCell id="36QlLySLfy8yBwGT6h9D-75" value="" style="line;strokeWidth=1;fillColor=none;align=left;verticalAlign=middle;spacingTop=-1;spacingLeft=3;spacingRight=3;rotatable=0;labelPosition=right;points=[];portConstraint=eastwest;strokeColor=inherit;fontSize=20;" parent="36QlLySLfy8yBwGT6h9D-73" vertex="1">
          <mxGeometry y="78" width="460" height="8" as="geometry" />
        </mxCell>
        <mxCell id="36QlLySLfy8yBwGT6h9D-76" value="&lt;span style=&quot;font-family: Helvetica, &amp;quot;VP Default&amp;quot;; font-size: 20px; text-wrap: nowrap; background-color: rgb(248, 249, 250);&quot;&gt;+UncertainItem(String name, double probability)&lt;/span&gt;" style="text;strokeColor=none;fillColor=none;align=left;verticalAlign=top;spacingLeft=4;spacingRight=4;overflow=hidden;rotatable=0;points=[[0,0.5],[1,0.5]];portConstraint=eastwest;whiteSpace=wrap;html=1;fontSize=20;" parent="36QlLySLfy8yBwGT6h9D-73" vertex="1">
          <mxGeometry y="86" width="460" height="34" as="geometry" />
        </mxCell>
        <mxCell id="36QlLySLfy8yBwGT6h9D-78" value="&lt;span style=&quot;font-family: Helvetica, &amp;quot;VP Default&amp;quot;; background-color: rgb(248, 249, 250);&quot;&gt;&lt;font style=&quot;font-size: 15px;&quot;&gt;UncertainItemset&lt;/font&gt;&lt;/span&gt;" style="swimlane;fontStyle=1;align=center;verticalAlign=top;childLayout=stackLayout;horizontal=1;startSize=26;horizontalStack=0;resizeParent=1;resizeParentMax=0;resizeLast=0;collapsible=1;marginBottom=0;whiteSpace=wrap;html=1;fontSize=15;" parent="WIyWlLk6GJQsqaUBKTNV-1" vertex="1">
          <mxGeometry x="344.25" y="-1160" width="505" height="91" as="geometry" />
        </mxCell>
        <mxCell id="36QlLySLfy8yBwGT6h9D-79" value="&lt;span style=&quot;font-family: Helvetica, &amp;quot;VP Default&amp;quot;; text-wrap: nowrap; background-color: rgb(248, 249, 250); font-size: 20px;&quot;&gt;+uncertainItems:&amp;nbsp;List&amp;lt;UncertainItem&amp;gt;&lt;/span&gt;" style="text;strokeColor=none;fillColor=none;align=left;verticalAlign=top;spacingLeft=4;spacingRight=4;overflow=hidden;rotatable=0;points=[[0,0.5],[1,0.5]];portConstraint=eastwest;whiteSpace=wrap;html=1;fontSize=20;" parent="36QlLySLfy8yBwGT6h9D-78" vertex="1">
          <mxGeometry y="26" width="505" height="26" as="geometry" />
        </mxCell>
        <mxCell id="36QlLySLfy8yBwGT6h9D-81" value="" style="line;strokeWidth=1;fillColor=none;align=left;verticalAlign=middle;spacingTop=-1;spacingLeft=3;spacingRight=3;rotatable=0;labelPosition=right;points=[];portConstraint=eastwest;strokeColor=inherit;fontSize=20;" parent="36QlLySLfy8yBwGT6h9D-78" vertex="1">
          <mxGeometry y="52" width="505" height="8" as="geometry" />
        </mxCell>
        <mxCell id="36QlLySLfy8yBwGT6h9D-82" value="&lt;span style=&quot;font-family: Helvetica, &amp;quot;VP Default&amp;quot;; text-wrap: nowrap; background-color: rgb(248, 249, 250); font-size: 20px;&quot;&gt;+UncertainItemset(List&amp;lt;UncertainItem&amp;gt; uncertainItems)&lt;/span&gt;" style="text;strokeColor=none;fillColor=none;align=left;verticalAlign=top;spacingLeft=4;spacingRight=4;overflow=hidden;rotatable=0;points=[[0,0.5],[1,0.5]];portConstraint=eastwest;whiteSpace=wrap;html=1;fontSize=20;" parent="36QlLySLfy8yBwGT6h9D-78" vertex="1">
          <mxGeometry y="60" width="505" height="31" as="geometry" />
        </mxCell>
        <mxCell id="36QlLySLfy8yBwGT6h9D-91" value="&lt;span style=&quot;font-family: Helvetica, &amp;quot;VP Default&amp;quot;; background-color: rgb(248, 249, 250);&quot;&gt;&lt;font style=&quot;font-size: 15px;&quot;&gt;UncertainTransaction&lt;/font&gt;&lt;/span&gt;" style="swimlane;fontStyle=1;align=center;verticalAlign=top;childLayout=stackLayout;horizontal=1;startSize=26;horizontalStack=0;resizeParent=1;resizeParentMax=0;resizeLast=0;collapsible=1;marginBottom=0;whiteSpace=wrap;html=1;fontSize=15;" parent="WIyWlLk6GJQsqaUBKTNV-1" vertex="1">
          <mxGeometry x="969.25" y="-1160" width="620" height="118" as="geometry" />
        </mxCell>
        <mxCell id="36QlLySLfy8yBwGT6h9D-92" value="&lt;span style=&quot;font-family: Helvetica, &amp;quot;VP Default&amp;quot;; text-wrap: nowrap; background-color: rgb(248, 249, 250); font-size: 20px;&quot;&gt;+id: String&lt;/span&gt;" style="text;strokeColor=none;fillColor=none;align=left;verticalAlign=top;spacingLeft=4;spacingRight=4;overflow=hidden;rotatable=0;points=[[0,0.5],[1,0.5]];portConstraint=eastwest;whiteSpace=wrap;html=1;fontSize=20;" parent="36QlLySLfy8yBwGT6h9D-91" vertex="1">
          <mxGeometry y="26" width="620" height="26" as="geometry" />
        </mxCell>
        <mxCell id="36QlLySLfy8yBwGT6h9D-93" value="&lt;span style=&quot;font-family: Helvetica, &amp;quot;VP Default&amp;quot;; text-wrap: nowrap; background-color: rgb(248, 249, 250); font-size: 20px;&quot;&gt;+uncertainItemset: UncertainItemset&lt;/span&gt;" style="text;strokeColor=none;fillColor=none;align=left;verticalAlign=top;spacingLeft=4;spacingRight=4;overflow=hidden;rotatable=0;points=[[0,0.5],[1,0.5]];portConstraint=eastwest;whiteSpace=wrap;html=1;fontSize=20;" parent="36QlLySLfy8yBwGT6h9D-91" vertex="1">
          <mxGeometry y="52" width="620" height="26" as="geometry" />
        </mxCell>
        <mxCell id="36QlLySLfy8yBwGT6h9D-94" value="" style="line;strokeWidth=1;fillColor=none;align=left;verticalAlign=middle;spacingTop=-1;spacingLeft=3;spacingRight=3;rotatable=0;labelPosition=right;points=[];portConstraint=eastwest;strokeColor=inherit;fontSize=20;" parent="36QlLySLfy8yBwGT6h9D-91" vertex="1">
          <mxGeometry y="78" width="620" height="8" as="geometry" />
        </mxCell>
        <mxCell id="36QlLySLfy8yBwGT6h9D-95" value="&lt;span style=&quot;font-family: Helvetica, &amp;quot;VP Default&amp;quot;; text-wrap: nowrap; background-color: rgb(248, 249, 250); font-size: 20px;&quot;&gt;+UncertainTransaction(String id, UncertainItemset uncertainItemset)&lt;/span&gt;" style="text;strokeColor=none;fillColor=none;align=left;verticalAlign=top;spacingLeft=4;spacingRight=4;overflow=hidden;rotatable=0;points=[[0,0.5],[1,0.5]];portConstraint=eastwest;whiteSpace=wrap;html=1;fontSize=20;" parent="36QlLySLfy8yBwGT6h9D-91" vertex="1">
          <mxGeometry y="86" width="620" height="32" as="geometry" />
        </mxCell>
        <mxCell id="36QlLySLfy8yBwGT6h9D-97" value="&lt;span style=&quot;font-family: Helvetica, &amp;quot;VP Default&amp;quot;; background-color: rgb(248, 249, 250);&quot;&gt;&lt;font style=&quot;font-size: 15px;&quot;&gt;UncertainDatabase&lt;/font&gt;&lt;/span&gt;" style="swimlane;fontStyle=1;align=center;verticalAlign=top;childLayout=stackLayout;horizontal=1;startSize=26;horizontalStack=0;resizeParent=1;resizeParentMax=0;resizeLast=0;collapsible=1;marginBottom=0;whiteSpace=wrap;html=1;fontSize=15;" parent="WIyWlLk6GJQsqaUBKTNV-1" vertex="1">
          <mxGeometry x="874.25" y="-1000" width="770" height="324" as="geometry" />
        </mxCell>
        <mxCell id="36QlLySLfy8yBwGT6h9D-98" value="&lt;span style=&quot;font-family: Helvetica, &amp;quot;VP Default&amp;quot;; text-wrap: nowrap; background-color: rgb(248, 249, 250); font-size: 20px;&quot;&gt;+transactionLists:&amp;nbsp;List&amp;lt;UncertainTransaction&amp;gt;&lt;/span&gt;" style="text;strokeColor=none;fillColor=none;align=left;verticalAlign=top;spacingLeft=4;spacingRight=4;overflow=hidden;rotatable=0;points=[[0,0.5],[1,0.5]];portConstraint=eastwest;whiteSpace=wrap;html=1;fontSize=20;" parent="36QlLySLfy8yBwGT6h9D-97" vertex="1">
          <mxGeometry y="26" width="770" height="26" as="geometry" />
        </mxCell>
        <mxCell id="36QlLySLfy8yBwGT6h9D-99" value="&lt;span style=&quot;font-family: Helvetica, &amp;quot;VP Default&amp;quot;; text-wrap: nowrap; background-color: rgb(248, 249, 250); font-size: 20px;&quot;&gt;+name:&amp;nbsp;List&amp;lt;List&amp;lt;String&amp;gt;&amp;gt;&lt;/span&gt;" style="text;strokeColor=none;fillColor=none;align=left;verticalAlign=top;spacingLeft=4;spacingRight=4;overflow=hidden;rotatable=0;points=[[0,0.5],[1,0.5]];portConstraint=eastwest;whiteSpace=wrap;html=1;fontSize=20;" parent="36QlLySLfy8yBwGT6h9D-97" vertex="1">
          <mxGeometry y="52" width="770" height="26" as="geometry" />
        </mxCell>
        <mxCell id="36QlLySLfy8yBwGT6h9D-103" value="&lt;span style=&quot;font-family: Helvetica, &amp;quot;VP Default&amp;quot;; font-size: 20px; text-wrap: nowrap; background-color: rgb(248, 249, 250);&quot;&gt;+name1:&amp;nbsp;List&amp;lt;List&amp;lt;String&amp;gt;&amp;gt;&lt;/span&gt;" style="text;strokeColor=none;fillColor=none;align=left;verticalAlign=top;spacingLeft=4;spacingRight=4;overflow=hidden;rotatable=0;points=[[0,0.5],[1,0.5]];portConstraint=eastwest;whiteSpace=wrap;html=1;fontSize=20;" parent="36QlLySLfy8yBwGT6h9D-97" vertex="1">
          <mxGeometry y="78" width="770" height="26" as="geometry" />
        </mxCell>
        <mxCell id="36QlLySLfy8yBwGT6h9D-106" value="&lt;span style=&quot;font-family: Helvetica, &amp;quot;VP Default&amp;quot;; font-size: 20px; text-wrap: nowrap; background-color: rgb(248, 249, 250);&quot;&gt;+prob:&amp;nbsp;List&amp;lt;List&amp;lt;Double&amp;gt;&amp;gt;&lt;/span&gt;" style="text;strokeColor=none;fillColor=none;align=left;verticalAlign=top;spacingLeft=4;spacingRight=4;overflow=hidden;rotatable=0;points=[[0,0.5],[1,0.5]];portConstraint=eastwest;whiteSpace=wrap;html=1;fontSize=20;" parent="36QlLySLfy8yBwGT6h9D-97" vertex="1">
          <mxGeometry y="104" width="770" height="26" as="geometry" />
        </mxCell>
        <mxCell id="36QlLySLfy8yBwGT6h9D-105" value="&lt;span style=&quot;font-family: Helvetica, &amp;quot;VP Default&amp;quot;; font-size: 20px; text-wrap: nowrap; background-color: rgb(248, 249, 250);&quot;&gt;+prob1:&amp;nbsp;List&amp;lt;List&amp;lt;Double&amp;gt;&amp;gt;&lt;/span&gt;" style="text;strokeColor=none;fillColor=none;align=left;verticalAlign=top;spacingLeft=4;spacingRight=4;overflow=hidden;rotatable=0;points=[[0,0.5],[1,0.5]];portConstraint=eastwest;whiteSpace=wrap;html=1;fontSize=20;" parent="36QlLySLfy8yBwGT6h9D-97" vertex="1">
          <mxGeometry y="130" width="770" height="26" as="geometry" />
        </mxCell>
        <mxCell id="36QlLySLfy8yBwGT6h9D-104" value="&lt;span style=&quot;font-family: Helvetica, &amp;quot;VP Default&amp;quot;; font-size: 20px; text-wrap: nowrap; background-color: rgb(248, 249, 250);&quot;&gt;+weight:&amp;nbsp;List&amp;lt;List&amp;lt;Double&amp;gt;&amp;gt;&lt;/span&gt;" style="text;strokeColor=none;fillColor=none;align=left;verticalAlign=top;spacingLeft=4;spacingRight=4;overflow=hidden;rotatable=0;points=[[0,0.5],[1,0.5]];portConstraint=eastwest;whiteSpace=wrap;html=1;fontSize=20;" parent="36QlLySLfy8yBwGT6h9D-97" vertex="1">
          <mxGeometry y="156" width="770" height="26" as="geometry" />
        </mxCell>
        <mxCell id="36QlLySLfy8yBwGT6h9D-102" value="&lt;span style=&quot;font-family: Helvetica, &amp;quot;VP Default&amp;quot;; font-size: 20px; text-wrap: nowrap; background-color: rgb(248, 249, 250);&quot;&gt;+weight1:&amp;nbsp;List&amp;lt;List&amp;lt;Double&amp;gt;&amp;gt;&lt;/span&gt;" style="text;strokeColor=none;fillColor=none;align=left;verticalAlign=top;spacingLeft=4;spacingRight=4;overflow=hidden;rotatable=0;points=[[0,0.5],[1,0.5]];portConstraint=eastwest;whiteSpace=wrap;html=1;fontSize=20;" parent="36QlLySLfy8yBwGT6h9D-97" vertex="1">
          <mxGeometry y="182" width="770" height="26" as="geometry" />
        </mxCell>
        <mxCell id="36QlLySLfy8yBwGT6h9D-100" value="" style="line;strokeWidth=1;fillColor=none;align=left;verticalAlign=middle;spacingTop=-1;spacingLeft=3;spacingRight=3;rotatable=0;labelPosition=right;points=[];portConstraint=eastwest;strokeColor=inherit;fontSize=20;" parent="36QlLySLfy8yBwGT6h9D-97" vertex="1">
          <mxGeometry y="208" width="770" height="8" as="geometry" />
        </mxCell>
        <mxCell id="36QlLySLfy8yBwGT6h9D-101" value="&lt;span style=&quot;font-family: Helvetica, &amp;quot;VP Default&amp;quot;; text-wrap: nowrap; background-color: rgb(248, 249, 250); font-size: 20px;&quot;&gt;+UncertainDatabase(String path, double mean, double std)&lt;/span&gt;" style="text;strokeColor=none;fillColor=none;align=left;verticalAlign=top;spacingLeft=4;spacingRight=4;overflow=hidden;rotatable=0;points=[[0,0.5],[1,0.5]];portConstraint=eastwest;whiteSpace=wrap;html=1;fontSize=20;" parent="36QlLySLfy8yBwGT6h9D-97" vertex="1">
          <mxGeometry y="216" width="770" height="26" as="geometry" />
        </mxCell>
        <mxCell id="36QlLySLfy8yBwGT6h9D-107" value="&lt;span style=&quot;font-family: Helvetica, &amp;quot;VP Default&amp;quot;; font-size: 20px; text-wrap: nowrap; background-color: rgb(248, 249, 250);&quot;&gt;+getTransactionLists():&amp;nbsp;List&amp;lt;UncertainTransaction&amp;gt;&lt;/span&gt;" style="text;strokeColor=none;fillColor=none;align=left;verticalAlign=top;spacingLeft=4;spacingRight=4;overflow=hidden;rotatable=0;points=[[0,0.5],[1,0.5]];portConstraint=eastwest;whiteSpace=wrap;html=1;fontSize=20;" parent="36QlLySLfy8yBwGT6h9D-97" vertex="1">
          <mxGeometry y="242" width="770" height="26" as="geometry" />
        </mxCell>
        <mxCell id="36QlLySLfy8yBwGT6h9D-109" value="&lt;span style=&quot;font-family: Helvetica, &amp;quot;VP Default&amp;quot;; font-size: 20px; text-wrap: nowrap; background-color: rgb(248, 249, 250);&quot;&gt;+addNewTransaction(List&amp;lt;String&amp;gt; titles, List&amp;lt;Double&amp;gt; probs): void&lt;/span&gt;" style="text;strokeColor=none;fillColor=none;align=left;verticalAlign=top;spacingLeft=4;spacingRight=4;overflow=hidden;rotatable=0;points=[[0,0.5],[1,0.5]];portConstraint=eastwest;whiteSpace=wrap;html=1;fontSize=20;" parent="36QlLySLfy8yBwGT6h9D-97" vertex="1">
          <mxGeometry y="268" width="770" height="26" as="geometry" />
        </mxCell>
        <mxCell id="36QlLySLfy8yBwGT6h9D-108" value="&lt;span style=&quot;font-family: Helvetica, &amp;quot;VP Default&amp;quot;; font-size: 20px; text-wrap: nowrap; background-color: rgb(248, 249, 250);&quot;&gt;+computeDistinctItemForBatch(List&amp;lt;UncertainTransaction&amp;gt; batch):&amp;nbsp;List&amp;lt;List&amp;lt;String&amp;gt;&amp;gt;&lt;/span&gt;" style="text;strokeColor=none;fillColor=none;align=left;verticalAlign=top;spacingLeft=4;spacingRight=4;overflow=hidden;rotatable=0;points=[[0,0.5],[1,0.5]];portConstraint=eastwest;whiteSpace=wrap;html=1;fontSize=20;" parent="36QlLySLfy8yBwGT6h9D-97" vertex="1">
          <mxGeometry y="294" width="770" height="30" as="geometry" />
        </mxCell>
        <mxCell id="36QlLySLfy8yBwGT6h9D-110" value="&lt;span style=&quot;font-family: Helvetica, &amp;quot;VP Default&amp;quot;; background-color: rgb(248, 249, 250);&quot;&gt;&lt;font style=&quot;font-size: 15px;&quot;&gt;PWFIT&lt;/font&gt;&lt;/span&gt;" style="swimlane;fontStyle=1;align=center;verticalAlign=top;childLayout=stackLayout;horizontal=1;startSize=26;horizontalStack=0;resizeParent=1;resizeParentMax=0;resizeLast=0;collapsible=1;marginBottom=0;whiteSpace=wrap;html=1;fontSize=15;" parent="WIyWlLk6GJQsqaUBKTNV-1" vertex="1">
          <mxGeometry x="591.75" y="125" width="805" height="146" as="geometry" />
        </mxCell>
        <mxCell id="36QlLySLfy8yBwGT6h9D-111" value="&lt;span style=&quot;font-family: Helvetica, &amp;quot;VP Default&amp;quot;; text-wrap: nowrap; background-color: rgb(248, 249, 250); font-size: 20px;&quot;&gt;-pool:&amp;nbsp;ForkJoinPool&lt;/span&gt;" style="text;strokeColor=none;fillColor=none;align=left;verticalAlign=top;spacingLeft=4;spacingRight=4;overflow=hidden;rotatable=0;points=[[0,0.5],[1,0.5]];portConstraint=eastwest;whiteSpace=wrap;html=1;fontSize=20;" parent="36QlLySLfy8yBwGT6h9D-110" vertex="1">
          <mxGeometry y="26" width="805" height="26" as="geometry" />
        </mxCell>
        <mxCell id="36QlLySLfy8yBwGT6h9D-113" value="" style="line;strokeWidth=1;fillColor=none;align=left;verticalAlign=middle;spacingTop=-1;spacingLeft=3;spacingRight=3;rotatable=0;labelPosition=right;points=[];portConstraint=eastwest;strokeColor=inherit;fontSize=20;" parent="36QlLySLfy8yBwGT6h9D-110" vertex="1">
          <mxGeometry y="52" width="805" height="8" as="geometry" />
        </mxCell>
        <mxCell id="36QlLySLfy8yBwGT6h9D-114" value="&lt;span style=&quot;font-family: Helvetica, &amp;quot;VP Default&amp;quot;; text-wrap: nowrap; background-color: rgb(248, 249, 250); font-size: 20px;&quot;&gt;+Buildtree(PFITNode nXs, int US, double minisup, double miniprob): void&lt;/span&gt;" style="text;strokeColor=none;fillColor=none;align=left;verticalAlign=top;spacingLeft=4;spacingRight=4;overflow=hidden;rotatable=0;points=[[0,0.5],[1,0.5]];portConstraint=eastwest;whiteSpace=wrap;html=1;fontSize=20;" parent="36QlLySLfy8yBwGT6h9D-110" vertex="1">
          <mxGeometry y="60" width="805" height="26" as="geometry" />
        </mxCell>
        <mxCell id="36QlLySLfy8yBwGT6h9D-115" value="&lt;span style=&quot;font-family: Helvetica, &amp;quot;VP Default&amp;quot;; font-size: 20px; text-wrap: nowrap; background-color: rgb(248, 249, 250);&quot;&gt;-processNode(PFITNode nX, double miniprob, double minisup, List&amp;lt;PFITNode&amp;gt; xs): void&lt;/span&gt;" style="text;strokeColor=none;fillColor=none;align=left;verticalAlign=top;spacingLeft=4;spacingRight=4;overflow=hidden;rotatable=0;points=[[0,0.5],[1,0.5]];portConstraint=eastwest;whiteSpace=wrap;html=1;fontSize=20;" parent="36QlLySLfy8yBwGT6h9D-110" vertex="1">
          <mxGeometry y="86" width="805" height="26" as="geometry" />
        </mxCell>
        <mxCell id="36QlLySLfy8yBwGT6h9D-116" value="&lt;span style=&quot;font-family: Helvetica, &amp;quot;VP Default&amp;quot;; font-size: 20px; text-wrap: nowrap; background-color: rgb(248, 249, 250);&quot;&gt;-updateNodeMetrics(PFITNode node, double miniprob): void&lt;/span&gt;" style="text;strokeColor=none;fillColor=none;align=left;verticalAlign=top;spacingLeft=4;spacingRight=4;overflow=hidden;rotatable=0;points=[[0,0.5],[1,0.5]];portConstraint=eastwest;whiteSpace=wrap;html=1;fontSize=20;" parent="36QlLySLfy8yBwGT6h9D-110" vertex="1">
          <mxGeometry y="112" width="805" height="34" as="geometry" />
        </mxCell>
        <mxCell id="36QlLySLfy8yBwGT6h9D-117" value="&lt;span style=&quot;font-family: Helvetica, &amp;quot;VP Default&amp;quot;; background-color: rgb(248, 249, 250);&quot;&gt;&lt;font style=&quot;font-size: 15px;&quot;&gt;PWFMIoSPlus&lt;/font&gt;&lt;/span&gt;" style="swimlane;fontStyle=1;align=center;verticalAlign=top;childLayout=stackLayout;horizontal=1;startSize=26;horizontalStack=0;resizeParent=1;resizeParentMax=0;resizeLast=0;collapsible=1;marginBottom=0;whiteSpace=wrap;html=1;fontSize=15;" parent="WIyWlLk6GJQsqaUBKTNV-1" vertex="1">
          <mxGeometry x="209.25" y="445" width="947.5" height="106" as="geometry" />
        </mxCell>
        <mxCell id="36QlLySLfy8yBwGT6h9D-123" value="" style="text;strokeColor=none;fillColor=none;align=left;verticalAlign=middle;spacingTop=-1;spacingLeft=4;spacingRight=4;rotatable=0;labelPosition=right;points=[];portConstraint=eastwest;" parent="36QlLySLfy8yBwGT6h9D-117" vertex="1">
          <mxGeometry y="26" width="947.5" height="14" as="geometry" />
        </mxCell>
        <mxCell id="36QlLySLfy8yBwGT6h9D-119" value="" style="line;strokeWidth=1;fillColor=none;align=left;verticalAlign=middle;spacingTop=-1;spacingLeft=3;spacingRight=3;rotatable=0;labelPosition=right;points=[];portConstraint=eastwest;strokeColor=inherit;fontSize=20;" parent="36QlLySLfy8yBwGT6h9D-117" vertex="1">
          <mxGeometry y="40" width="947.5" height="8" as="geometry" />
        </mxCell>
        <mxCell id="36QlLySLfy8yBwGT6h9D-121" value="&lt;span style=&quot;font-family: Helvetica, &amp;quot;VP Default&amp;quot;; font-size: 20px; text-wrap: nowrap; background-color: rgb(248, 249, 250);&quot;&gt;+ADDTRANS(PFITNode nX,int US ,UncertainDatabase database, double minisup, double miniprob): void&lt;/span&gt;" style="text;strokeColor=none;fillColor=none;align=left;verticalAlign=top;spacingLeft=4;spacingRight=4;overflow=hidden;rotatable=0;points=[[0,0.5],[1,0.5]];portConstraint=eastwest;whiteSpace=wrap;html=1;fontSize=20;" parent="36QlLySLfy8yBwGT6h9D-117" vertex="1">
          <mxGeometry y="48" width="947.5" height="26" as="geometry" />
        </mxCell>
        <mxCell id="36QlLySLfy8yBwGT6h9D-122" value="&lt;span style=&quot;font-family: Helvetica, &amp;quot;VP Default&amp;quot;; font-size: 20px; text-wrap: nowrap; background-color: rgb(248, 249, 250);&quot;&gt;+DELTRANS(PFITNode nX, int US, UncertainDatabase database, double minisup, double miniprob): void&lt;/span&gt;" style="text;strokeColor=none;fillColor=none;align=left;verticalAlign=top;spacingLeft=4;spacingRight=4;overflow=hidden;rotatable=0;points=[[0,0.5],[1,0.5]];portConstraint=eastwest;whiteSpace=wrap;html=1;fontSize=20;" parent="36QlLySLfy8yBwGT6h9D-117" vertex="1">
          <mxGeometry y="74" width="947.5" height="32" as="geometry" />
        </mxCell>
        <mxCell id="36QlLySLfy8yBwGT6h9D-124" value="&lt;span style=&quot;font-family: Helvetica, &amp;quot;VP Default&amp;quot;; background-color: rgb(248, 249, 250);&quot;&gt;&lt;font style=&quot;font-size: 15px;&quot;&gt;PWFMIoS&lt;/font&gt;&lt;/span&gt;" style="swimlane;fontStyle=1;align=center;verticalAlign=top;childLayout=stackLayout;horizontal=1;startSize=26;horizontalStack=0;resizeParent=1;resizeParentMax=0;resizeLast=0;collapsible=1;marginBottom=0;whiteSpace=wrap;html=1;fontSize=15;" parent="WIyWlLk6GJQsqaUBKTNV-1" vertex="1">
          <mxGeometry x="839.25" y="305" width="947.5" height="104" as="geometry" />
        </mxCell>
        <mxCell id="36QlLySLfy8yBwGT6h9D-125" value="" style="text;strokeColor=none;fillColor=none;align=left;verticalAlign=middle;spacingTop=-1;spacingLeft=4;spacingRight=4;rotatable=0;labelPosition=right;points=[];portConstraint=eastwest;" parent="36QlLySLfy8yBwGT6h9D-124" vertex="1">
          <mxGeometry y="26" width="947.5" height="14" as="geometry" />
        </mxCell>
        <mxCell id="36QlLySLfy8yBwGT6h9D-126" value="" style="line;strokeWidth=1;fillColor=none;align=left;verticalAlign=middle;spacingTop=-1;spacingLeft=3;spacingRight=3;rotatable=0;labelPosition=right;points=[];portConstraint=eastwest;strokeColor=inherit;fontSize=20;" parent="36QlLySLfy8yBwGT6h9D-124" vertex="1">
          <mxGeometry y="40" width="947.5" height="8" as="geometry" />
        </mxCell>
        <mxCell id="36QlLySLfy8yBwGT6h9D-127" value="&lt;span style=&quot;font-family: Helvetica, &amp;quot;VP Default&amp;quot;; font-size: 20px; text-wrap: nowrap; background-color: rgb(248, 249, 250);&quot;&gt;+ADDTRANS(PFITNode nX,int US ,UncertainDatabase database, double minisup, double miniprob): void&lt;/span&gt;" style="text;strokeColor=none;fillColor=none;align=left;verticalAlign=top;spacingLeft=4;spacingRight=4;overflow=hidden;rotatable=0;points=[[0,0.5],[1,0.5]];portConstraint=eastwest;whiteSpace=wrap;html=1;fontSize=20;" parent="36QlLySLfy8yBwGT6h9D-124" vertex="1">
          <mxGeometry y="48" width="947.5" height="26" as="geometry" />
        </mxCell>
        <mxCell id="36QlLySLfy8yBwGT6h9D-128" value="&lt;span style=&quot;font-family: Helvetica, &amp;quot;VP Default&amp;quot;; font-size: 20px; text-wrap: nowrap; background-color: rgb(248, 249, 250);&quot;&gt;+DELTRANS(PFITNode nX, int US, UncertainDatabase database, double minisup, double miniprob): void&lt;/span&gt;" style="text;strokeColor=none;fillColor=none;align=left;verticalAlign=top;spacingLeft=4;spacingRight=4;overflow=hidden;rotatable=0;points=[[0,0.5],[1,0.5]];portConstraint=eastwest;whiteSpace=wrap;html=1;fontSize=20;" parent="36QlLySLfy8yBwGT6h9D-124" vertex="1">
          <mxGeometry y="74" width="947.5" height="30" as="geometry" />
        </mxCell>
        <mxCell id="36QlLySLfy8yBwGT6h9D-130" value="" style="endArrow=diamondThin;endFill=0;endSize=24;html=1;rounded=0;exitX=0.5;exitY=0;exitDx=0;exitDy=0;entryX=0.499;entryY=0.975;entryDx=0;entryDy=0;entryPerimeter=0;" parent="WIyWlLk6GJQsqaUBKTNV-1" source="36QlLySLfy8yBwGT6h9D-73" target="36QlLySLfy8yBwGT6h9D-82" edge="1">
          <mxGeometry width="160" relative="1" as="geometry">
            <mxPoint x="674.25" y="-970" as="sourcePoint" />
            <mxPoint x="659.25" y="-1070" as="targetPoint" />
          </mxGeometry>
        </mxCell>
        <mxCell id="36QlLySLfy8yBwGT6h9D-131" value="" style="endArrow=diamondThin;endFill=0;endSize=24;html=1;rounded=0;exitX=1;exitY=0.5;exitDx=0;exitDy=0;entryX=0;entryY=0.5;entryDx=0;entryDy=0;" parent="WIyWlLk6GJQsqaUBKTNV-1" source="36QlLySLfy8yBwGT6h9D-79" target="36QlLySLfy8yBwGT6h9D-92" edge="1">
          <mxGeometry width="160" relative="1" as="geometry">
            <mxPoint x="669.25" y="-886" as="sourcePoint" />
            <mxPoint x="669.25" y="-1065" as="targetPoint" />
          </mxGeometry>
        </mxCell>
        <mxCell id="36QlLySLfy8yBwGT6h9D-132" value="" style="endArrow=diamondThin;endFill=0;endSize=24;html=1;rounded=0;entryX=0.5;entryY=0;entryDx=0;entryDy=0;exitX=0.467;exitY=1.015;exitDx=0;exitDy=0;exitPerimeter=0;" parent="WIyWlLk6GJQsqaUBKTNV-1" source="36QlLySLfy8yBwGT6h9D-95" target="36QlLySLfy8yBwGT6h9D-97" edge="1">
          <mxGeometry width="160" relative="1" as="geometry">
            <mxPoint x="1204.25" y="-1030" as="sourcePoint" />
            <mxPoint x="954.25" y="-1111" as="targetPoint" />
          </mxGeometry>
        </mxCell>
        <mxCell id="36QlLySLfy8yBwGT6h9D-133" value="" style="endArrow=diamondThin;endFill=0;endSize=24;html=1;rounded=0;entryX=0.5;entryY=0;entryDx=0;entryDy=0;exitX=0.498;exitY=0.993;exitDx=0;exitDy=0;exitPerimeter=0;edgeStyle=elbowEdgeStyle;elbow=vertical;" parent="WIyWlLk6GJQsqaUBKTNV-1" source="36QlLySLfy8yBwGT6h9D-108" target="zkfFHV4jXpPFQw0GAbJ--17" edge="1">
          <mxGeometry width="160" relative="1" as="geometry">
            <mxPoint x="1040" y="-670" as="sourcePoint" />
            <mxPoint x="691" y="-722" as="targetPoint" />
            <Array as="points">
              <mxPoint x="1070" y="-650" />
            </Array>
          </mxGeometry>
        </mxCell>
        <mxCell id="36QlLySLfy8yBwGT6h9D-134" value="" style="endArrow=diamondThin;endFill=0;endSize=24;html=1;rounded=0;entryX=0.5;entryY=0;entryDx=0;entryDy=0;exitX=0.499;exitY=1.033;exitDx=0;exitDy=0;exitPerimeter=0;" parent="WIyWlLk6GJQsqaUBKTNV-1" source="36QlLySLfy8yBwGT6h9D-38" target="36QlLySLfy8yBwGT6h9D-110" edge="1">
          <mxGeometry width="160" relative="1" as="geometry">
            <mxPoint x="725" y="230" as="sourcePoint" />
            <mxPoint x="726" y="278" as="targetPoint" />
          </mxGeometry>
        </mxCell>
        <mxCell id="36QlLySLfy8yBwGT6h9D-135" value="" style="endArrow=diamondThin;endFill=0;endSize=24;html=1;rounded=0;entryX=0.75;entryY=0;entryDx=0;entryDy=0;exitX=1;exitY=0.5;exitDx=0;exitDy=0;edgeStyle=orthogonalEdgeStyle;" parent="WIyWlLk6GJQsqaUBKTNV-1" source="36QlLySLfy8yBwGT6h9D-111" target="36QlLySLfy8yBwGT6h9D-124" edge="1">
          <mxGeometry width="160" relative="1" as="geometry">
            <mxPoint x="1406.75" y="145" as="sourcePoint" />
            <mxPoint x="1407.75" y="208" as="targetPoint" />
          </mxGeometry>
        </mxCell>
        <mxCell id="36QlLySLfy8yBwGT6h9D-136" value="" style="endArrow=diamondThin;endFill=0;endSize=24;html=1;rounded=0;entryX=0.25;entryY=0;entryDx=0;entryDy=0;exitX=0;exitY=0.5;exitDx=0;exitDy=0;edgeStyle=orthogonalEdgeStyle;" parent="WIyWlLk6GJQsqaUBKTNV-1" source="36QlLySLfy8yBwGT6h9D-111" target="36QlLySLfy8yBwGT6h9D-117" edge="1">
          <mxGeometry width="160" relative="1" as="geometry">
            <mxPoint x="686.75" y="275" as="sourcePoint" />
            <mxPoint x="754.75" y="416" as="targetPoint" />
          </mxGeometry>
        </mxCell>
      </root>
    </mxGraphModel>
  </diagram>
</mxfile>
